<svg width="395" height="283" viewBox="0 0 395 283" fill="none" xmlns="http://www.w3.org/2000/svg">
<path fill-rule="evenodd" clip-rule="evenodd" d="M26.8378 1.14741C24.8518 1.89141 21.3898 3.66041 19.1438 5.07741C-7.3942 21.8304 -6.2032 56.8234 21.8578 84.7504C34.7518 97.5844 47.3658 103.364 67.5708 105.699C74.7238 106.525 79.7708 106.547 85.8708 105.777C90.5038 105.192 94.4868 104.907 94.7238 105.143C94.9598 105.38 95.0928 110.77 95.0188 117.121C94.8498 131.571 96.2028 139.443 101.094 152.465C104.394 161.252 104.948 163.882 104.948 170.757C104.948 181.186 102.618 192.341 98.4848 201.701C90.6748 219.386 90.0298 226.378 94.9018 240.567C100.09 255.676 107.761 272.897 110.645 275.907C117.275 282.827 136.824 283.678 139.327 277.156C141.402 271.749 139.338 268.015 132.754 265.264C127.759 263.177 125.368 259.756 122.45 250.516C119.667 241.709 119.251 235.036 121.31 232.221C122.556 230.517 123.222 231.288 129.16 241.291C132.729 247.303 136.443 253.793 137.413 255.712C142.043 264.874 149.407 268.374 161.857 267.333C170.753 266.588 174.292 264.561 174.755 259.944C175.155 255.95 172.222 253.206 165.942 251.7C163.31 251.068 160.216 249.551 159.067 248.328C156.222 245.299 147.948 229.797 147.948 227.494C147.948 223.718 160.104 203.232 166.451 196.313L169.1 193.426L178.274 194.299C183.32 194.78 202.298 195.183 220.448 195.196C259.611 195.222 261.624 195.544 266.03 202.492C267.598 204.965 271.793 215.86 275.351 226.704C280.327 241.87 282.319 249.743 283.98 260.811C286.36 276.668 287.356 278.687 293.845 280.836C295.827 281.492 300.887 282.067 305.091 282.115C313.433 282.209 316.188 280.867 317.377 276.127C317.712 274.793 318.62 273.701 319.394 273.701C321.621 273.701 325.076 268.591 324.746 265.788C324.473 263.481 322.795 261.948 316.319 258.086C314.605 257.064 314.462 255.638 314.61 241.086C314.817 220.689 316.369 206.792 319.044 201.389C320.257 198.937 327.038 191.397 335.399 183.201C355.156 163.835 354.362 165.289 359.96 138.201C361.666 129.951 363.292 122.409 363.575 121.44C364.243 119.155 368.362 117.115 373.681 116.436C378.901 115.77 386.148 112.343 390.597 108.436C394.438 105.063 395.036 100.549 392.457 94.3784C391.637 92.4154 390.246 86.6324 389.365 81.5264C387.425 70.2874 386.64 68.7094 379.525 61.7354C376.458 58.7294 373.948 55.7324 373.948 55.0754C373.948 54.4184 375.298 51.0284 376.947 47.5414C382.174 36.4934 380.499 32.9244 372.606 38.2884L368.8 40.8744L369.463 36.4484C370.139 31.9424 368.513 28.6694 365.627 28.7234C362.625 28.7794 355.71 33.0894 347.805 39.8304C343.051 43.8844 336.672 49.0864 333.628 51.3894C327.368 56.1274 318.243 66.7494 314.031 74.2014C310.451 80.5344 302.246 88.2394 296.264 90.8854C291.81 92.8564 291.392 92.8714 284.547 91.3164C280.642 90.4304 271.079 88.8004 263.294 87.6944C255.51 86.5884 244.26 84.5904 238.294 83.2534C215.123 78.0614 184.755 74.8144 151.948 74.0234C130.297 73.5004 127.464 73.6364 115.948 75.7524C106.263 77.5304 99.8438 78.0474 87.4478 78.0464C68.6078 78.0454 58.0408 75.9614 46.7308 70.0184C33.3948 63.0104 21.7168 47.9544 21.7168 37.7684C21.7168 31.5734 23.8228 27.7234 32.0198 18.9304C39.8008 10.5834 41.2198 6.88942 38.2048 2.83142C35.9098 -0.255583 32.0948 -0.820585 26.8378 1.14741Z" fill="black"/>
</svg>
